#!OML:ASF F:\VICON\USERDATA\INSTALL\Justin_Nancy\Justin_Nancy.ASF
:FULLY-SPECIFIED
:DEGREES
17
root -12.243 17.9273 -24.0814 6.12209 0.338111 -9.09014
lowerback 9.04262 3.01614 4.587
upperback -1.03548 4.81377 4.4939
thorax -6.18392 2.29225 1.45892
lowerneck -14.802 -3.66477 -10.6901
upperneck 9.53697 -3.6747 7.1515
head 5.62652 -1.67275 3.66364
rclavicle -4.51241e-014 -1.55052e-014
rhumerus -36.3347 26.926 -90.213
rradius 114.9
rwrist -2.4998
rhand -13.7867 24.5065
rfingers 7.12502
rthumb 12.3348 -5.10963
lclavicle -4.51241e-014 -1.55052e-014
lhumerus -57.2818 -2.7836 95.2214
lradius 102.661
lwrist 23.2488
lhand -15.8448 11.2741
lfingers 7.12502
lthumb 10.3499 40.9994
rfemur 1.97293 -3.90293 27.0232
rtibia 29.5675
rfoot 8.52235 -5.68624
rtoes -17.2769
lfemur -32.9432 -1.60261 -18.1554
ltibia 58.178
lfoot -8.27714 -1.73876
ltoes -20.2334
18
root -12.2081 17.9965 -23.6748 6.17582 1.24107 -9.17234
lowerback 8.41402 2.8116 4.32012
upperback -1.39141 4.50509 4.69928
thorax -6.24249 2.15425 1.88982
lowerneck -13.4041 -3.89533 -10.5947
upperneck 8.75924 -4.0783 6.77326
head 5.17941 -1.90972 3.49673
rclavicle -3.18055e-015 2.0276e-014
rhumerus -37.365 27.453 -90.5217
rradius 114.86
rwrist -2.64039
rhand -12.589 26.8981
rfingers 7.12502
rthumb 13.4894 -2.64506
lclavicle -3.18055e-015 2.0276e-014
lhumerus -58.7113 -1.93737 95.1782
lradius 102.997
lwrist 23.1746
lhand -15.6123 10.7238
lfingers 7.12502
lthumb 10.5741 40.4378
rfemur 3.48298 -4.08552 26.7918
rtibia 27.9498
rfoot 12.6848 -5.98568
rtoes -14.1388
lfemur -33.0742 -1.70364 -18.6232
ltibia 54.4839
lfoot -8.29544 -1.68865
ltoes -21.0954
19
root -12.1702 18.0673 -23.2578 6.11856 1.97349 -9.24842
lowerback 7.83786 3.51966 5.4801
upperback 0.0821755 5.34262 3.59458
thorax -4.15308 2.57054 0.076477
lowerneck -19.6658 -5.78606 -8.63048
upperneck 9.6575 -6.45757 6.49501
head 6.61996 -2.89844 2.74872
rclavicle 2.96686e-014 -7.95139e-015
rhumerus -33.7709 24.6836 -89.4568
rradius 114.521
rwrist -2.55588
rhand -11.6477 27.5569
rfingers 7.12502
rthumb 14.3965 -1.92379
lclavicle 2.96686e-014 -7.95139e-015
lhumerus -55.6528 -5.09264 94.4249
lradius 102.745
lwrist 23.4945
lhand -15.8125 11.0082
lfingers 7.12502
lthumb 10.381 40.7319
rfemur 5.1155 -4.06154 26.5336
rtibia 26.3712
rfoot 16.662 -6.05722
rtoes -9.18782
lfemur -32.8973 -1.88275 -19.1047
ltibia 50.7067
lfoot -7.96216 -1.2653
ltoes -21.6297
20
root -12.1296 18.1369 -22.8383 6.13188 2.58369 -9.12286
lowerback 7.18191 3.5519 5.18084
upperback -0.120564 5.31855 3.52337
thorax -4.01692 2.5672 0.207144
lowerneck -18.8043 -5.78154 -8.7893
upperneck 9.54373 -6.52975 6.81028
head 6.4676 -2.93019 2.88263
rclavicle 1.13804e-014 -1.94809e-014
rhumerus -34.9509 25.1009 -90.1657
rradius 114.608
rwrist -2.0447
rhand -12.3078 25.7038
rfingers 7.12502
rthumb 13.7604 -3.82116
lclavicle 1.13804e-014 -1.94809e-014
lhumerus -56.8012 -4.91909 94.2659
lradius 103.202
lwrist 23.6109
lhand -16.5587 11.3088
lfingers 7.12502
lthumb 9.66111 41.0672
rfemur 6.73736 -3.89719 26.0527
rtibia 24.8975
rfoot 20.2158 -5.79411
rtoes -3.08293
lfemur -32.6514 -2.07773 -19.8236
ltibia 46.9292
lfoot -6.99919 -0.533596
ltoes -18.5241
21
root -12.0927 18.1951 -22.43 6.15498 3.2623 -9.25988
lowerback 6.54557 3.52366 5.20876
upperback -0.124269 5.23122 3.46772
thorax -3.6579 2.53261 0.186525
lowerneck -18.8198 -5.88792 -8.80997
upperneck 9.59118 -6.69639 6.99137
head 6.5066 -2.9957 2.92414
rclavicle -8.26447e-014 -3.81667e-014
rhumerus -35.6449 25.672 -90.8315
rradius 114.636
rwrist -0.619618
rhand -13.6768 22.5105
rfingers 7.12502
rthumb 12.4407 -7.09926
lclavicle -8.26447e-014 -3.81667e-014
lhumerus -57.4313 -4.82618 93.8871
lradius 103.673
lwrist 23.8275
lhand -16.657 11.1884
lfingers 7.12502
lthumb 9.56628 40.9512
rfemur 8.21465 -3.55901 26.0017
rtibia 23.6921
rfoot 23.003 -5.60297
rtoes 1.65423
lfemur -32.4367 -2.1558 -20.2438
ltibia 43.2897
lfoot -6.21314 0.486318
ltoes -15.8897
22
root -12.0641 18.2377 -22.027 5.97628 3.71183 -9.83633
lowerback 6.34427 3.56077 5.58819
upperback -0.132802 5.29354 3.47305
thorax -3.51886 2.5601 -0.00697016
lowerneck -19.0765 -6.06861 -8.52585
upperneck 9.7329 -6.99636 6.97935
head 6.60758 -3.12416 2.83296
rclavicle -3.45388e-015 -2.28602e-014
rhumerus -35.9445 25.4728 -91.1494
rradius 114.695
rwrist -2.32521
rhand -12.7365 24.5236
rfingers 7.12502
rthumb 13.3472 -5.02891
lclavicle -3.45388e-015 -2.28602e-014
lhumerus -57.9353 -4.9711 93.3664
lradius 104.148
lwrist 24.0921
lhand -16.5693 11.0364
lfingers 7.12502
lthumb 9.65091 40.7953
rfemur 9.56653 -2.63807 26.6637
rtibia 23.0168
rfoot 24.7649 -5.2003
rtoes 2.20169
lfemur -32.0208 -1.9825 -20.1407
ltibia 39.7431
lfoot -5.89324 1.66367
ltoes -15.9293
23
root -12.0397 18.2611 -21.6248 5.68502 3.66092 -10.5229
lowerback 6.45435 3.77233 5.89891
upperback -0.262084 5.62078 3.55875
thorax -3.68347 2.71143 -0.12849
lowerneck -19.0083 -6.22958 -8.4406
upperneck 9.92495 -7.27353 7.11754
head 6.68357 -3.24313 2.83022
rclavicle 4.99198e-014 -1.49089e-014
rhumerus -37.2161 26.0249 -92.2099
rradius 114.648
rwrist -0.309203
rhand -14.9648 20.6356
rfingers 7.12502
rthumb 11.1987 -9.0455
lclavicle 4.99198e-014 -1.49089e-014
lhumerus -58.7504 -5.14961 92.9492
lradius 104.756
lwrist 24.2068
lhand -16.2437 10.883
lfingers 7.12502
lthumb 9.96506 40.6271
rfemur 10.7616 -1.15388 27.5126
rtibia 22.9274
rfoot 25.7954 -4.74466
rtoes 1.92887
lfemur -31.4459 -1.36768 -19.9297
ltibia 36.338
lfoot -5.46751 2.8521
ltoes -16.1486
